HIERARCHY
ROOT hip
{
	OFFSET 0.000000 0.000000 0.000000 
	CHANNELS 6 Xposition Yposition Zposition Xrotation Zrotation Yrotation
	JOINT abdomen
	{
		OFFSET 0.000000 3.402643 0.000000 
		CHANNELS 3 Xrotation Zrotation Yrotation
		JOINT chest
		{
			OFFSET 0.000000 8.438565 -0.680529 
			CHANNELS 3 Xrotation Zrotation Yrotation
			JOINT neck
			{
				OFFSET 0.000000 10.207942 -0.272212 
				CHANNELS 3 Xrotation Zrotation Yrotation
				JOINT head
				{
					OFFSET 0.000000 3.130431 0.000000 
					CHANNELS 3 Xrotation Zrotation Yrotation
					End Site
					{
						OFFSET 0.000000 3.130435 0.000000 
					}
				}
			}
			JOINT lCollar
			{
				OFFSET 3.470700 6.669187 -0.816635 
				CHANNELS 3 Yrotation Zrotation Xrotation
				JOINT lShldr
				{
					OFFSET 3.198488 0.000000 0.000000 
					CHANNELS 3 Zrotation Yrotation Xrotation
					JOINT lForeArm
					{
						OFFSET 10.139888 0.000000 0.000000 
						CHANNELS 3 Yrotation Zrotation Xrotation
						JOINT lHand
						{
							OFFSET 8.370511 0.000000 0.000000 
							CHANNELS 3 Zrotation Yrotation Xrotation
							End Site
							{
								OFFSET 4.083176 0.000000 0.000000 
							}
						}
					}
				}
			}
			JOINT rCollar
			{
				OFFSET -3.470700 6.669187 -0.816635 
				CHANNELS 3 Yrotation Zrotation Xrotation
				JOINT rShldr
				{
					OFFSET -3.198488 0.000000 0.000000 
					CHANNELS 3 Zrotation Yrotation Xrotation
					JOINT rForeArm
					{
						OFFSET -10.139888 0.000000 0.000000 
						CHANNELS 3 Yrotation Zrotation Xrotation
						JOINT rHand
						{
							OFFSET -8.370511 0.000000 0.000000 
							CHANNELS 3 Zrotation Yrotation Xrotation
							End Site
							{
								OFFSET -4.083176 0.000000 0.000000 
							}
						}
					}
				}
			}
		}
	}
	JOINT lThigh
	{
		OFFSET 5.308129 -1.633274 1.361059 
		CHANNELS 3 Xrotation Zrotation Yrotation
		JOINT lShin
		{
			OFFSET -2.041588 -20.007561 0.000000 
			CHANNELS 3 Xrotation Zrotation Yrotation
			JOINT lFoot
			{
				OFFSET 0.000000 -19.190928 -1.224953 
				CHANNELS 3 Xrotation Yrotation Zrotation
				End Site
				{
					OFFSET 0.000000 -2.449906 4.627600 
				}
			}
		}
	}
	JOINT rThigh
	{
		OFFSET -5.308129 -1.633274 1.361059 
		CHANNELS 3 Xrotation Zrotation Yrotation
		JOINT rShin
		{
			OFFSET 2.041588 -20.007561 0.000000 
			CHANNELS 3 Xrotation Zrotation Yrotation
			JOINT rFoot
			{
				OFFSET 0.000000 -19.190928 -1.224953 
				CHANNELS 3 Xrotation Yrotation Zrotation
				End Site
				{
					OFFSET 0.000000 -2.449906 4.627600 
				}
			}
		}
	}
}
MOTION
Frames: 6
Frame Time: 0.016667
0.338494 41.427303 -0.653015 6.256060 5.174250 1.514040 -14.307700 0.450988 3.471930 18.622999 -0.488003 1.627800 -0.608189 -6.415100 6.427130 4.391600 2.850610 3.193510 2.000000 -2.000000 0.000000 -58.597000 -5.492730 161.447998 146.865005 -0.092182 0.089862 -179.919998 -179.899002 4.240420 -2.000000 2.000000 0.000000 -114.157997 156.604004 -2.955540 -125.654999 0.140847 0.093400 -0.083501 0.076355 -165.339996 -29.461460 6.802640 -2.244990 56.344296 1.603900 3.711050 1.481403 7.011647 1.311929 -18.837801 -8.272244 17.034348 58.135475 -1.938197 -3.620030 -14.026053 -11.642045 -3.917340 
0.070489 41.027954 -0.852904 5.214970 4.969680 0.678452 -14.407100 0.442860 3.395240 18.486300 -0.448926 1.588490 -0.176880 -6.194570 6.605020 4.518640 2.821010 3.297230 2.000000 -2.000000 0.000000 -54.503899 -8.301090 158.944000 146.182007 -0.093146 0.091320 -179.919006 -179.897995 3.771680 -2.000000 2.000000 0.000000 -116.402000 154.485001 -7.247170 -129.395004 0.134276 0.088354 -0.084462 0.078104 -166.052994 -29.672859 7.047095 -0.720492 59.536076 1.343547 3.863391 1.562399 2.683254 1.308771 -18.065813 -7.693201 17.065584 59.323196 -1.865504 -3.672392 -12.676583 -9.554968 -3.026226 
-0.207773 40.417675 -0.934229 4.184630 4.801680 -0.605725 -14.501100 0.580438 3.541650 18.525400 -0.165911 1.666040 0.436013 -5.937740 6.863720 4.773040 2.888700 3.437580 2.000000 -2.000000 0.000000 -51.905701 -10.462600 157.445007 145.694000 -0.093845 0.092354 -179.919006 -179.897995 3.498240 -2.000000 2.000000 0.000000 61.569000 28.521200 169.459000 -131.348007 0.130978 0.085551 -0.084197 0.077626 -165.856995 -28.614048 7.088638 0.820762 59.350655 1.343163 3.869782 0.791399 -1.784936 1.327069 -16.228102 -7.342653 16.830221 58.448074 -1.948827 -3.626638 -15.331180 -9.537330 -3.434747 
-0.486035 39.807384 -1.015550 3.154800 4.621920 -1.883460 -14.585300 0.717915 3.687630 18.564400 0.117117 1.734210 1.038660 -5.670760 7.128070 5.037250 2.956300 3.588790 2.000000 -2.000000 0.000000 -49.239101 -12.556000 155.837997 145.205002 -0.094553 0.093383 -179.917999 -179.897003 3.234570 -2.000000 2.000000 0.000000 59.266701 31.420000 165.951004 -133.311005 0.127763 0.082622 -0.083946 0.077171 -165.671997 -27.485376 7.104968 2.397977 59.115040 1.361178 3.859039 0.001493 -6.246445 1.296339 -14.459297 -6.963541 16.622671 57.718903 -2.046384 -3.581993 -18.044806 -9.509061 -3.808945 
-0.720223 39.299931 -0.968098 2.536880 4.429270 -3.338940 -14.885400 0.908227 3.781220 18.671801 0.361133 1.804520 1.495560 -5.390870 7.569940 5.213720 3.102220 3.815750 2.000000 -2.000000 0.000000 -47.930302 -13.661200 155.059006 145.156998 -0.094625 0.093485 -179.919006 -179.899002 3.898630 -2.000000 2.000000 0.000000 57.542000 34.294998 164.244003 -133.867004 0.126870 0.081772 -0.083762 0.076835 -165.535004 -25.737169 7.185313 4.087183 58.790813 1.379382 3.831909 -5.767866 -2.050673 1.295432 -12.573085 -7.126645 15.862766 55.880119 -2.208016 -3.490158 -22.634771 -9.903822 -4.841509 
-0.954410 38.792614 -0.920635 1.919260 4.216390 -4.799910 -15.176000 1.085290 3.866670 18.779200 0.614938 1.865680 1.952360 -5.100970 8.016910 5.390230 3.238320 4.043370 2.000000 -2.000000 0.000000 -46.592201 -14.746900 154.251007 145.108002 -0.094696 0.093587 -179.919998 -179.899994 4.562690 -2.000000 2.000000 0.000000 55.641800 37.111801 162.376007 -134.423996 0.125985 0.080913 -0.083593 0.076523 -165.408005 -23.988897 7.214161 5.808811 58.486172 1.420153 3.825131 -11.530375 2.092394 1.718035 -10.788962 -7.226536 15.091149 54.157070 -2.386066 -3.396148 -27.243681 -10.220788 -5.891978 
